<svg id="Capa_1" data-name="Capa 1" xmlns="http://www.w3.org/2000/svg" viewBox="0 0 600 600"><defs><style>.cls-1{fill:red;}.cls-2{fill:#fff;}.cls-3{fill:#e30413;}</style></defs><circle class="cls-1" cx="300" cy="300" r="300"/><path class="cls-2" d="M160.22,349.08a30.51,30.51,0,0,1-30.47-30.48V210.81a30.51,30.51,0,0,1,30.47-30.47H422.55A30.51,30.51,0,0,1,453,210.81v53.9a8.06,8.06,0,1,1-16.12,0v-53.9a14.37,14.37,0,0,0-14.36-14.36H160.22a14.37,14.37,0,0,0-14.35,14.36V318.6A14.37,14.37,0,0,0,160.22,333H294.78a8.06,8.06,0,0,1,0,16.12Z"/><path class="cls-3" d="M422.55,181.75a29.1,29.1,0,0,1,29.06,29.06v53.9a6.64,6.64,0,1,1-13.28,0v-53.9A15.79,15.79,0,0,0,422.55,195H160.22a15.79,15.79,0,0,0-15.77,15.77V318.6a15.8,15.8,0,0,0,15.77,15.78H294.78a6.64,6.64,0,1,1,0,13.28H160.22a29.08,29.08,0,0,1-29.05-29.06V210.81a29.09,29.09,0,0,1,29.05-29.06H422.55m0-2.83H160.22a31.93,31.93,0,0,0-31.89,31.89V318.6a31.93,31.93,0,0,0,31.89,31.9H294.78a9.48,9.48,0,1,0,0-19H160.22a13,13,0,0,1-12.94-12.94V210.81a13,13,0,0,1,12.94-12.94H422.55a13,13,0,0,1,12.94,12.94v53.9a9.48,9.48,0,0,0,18.95,0v-53.9a31.93,31.93,0,0,0-31.89-31.89Z"/><path class="cls-2" d="M212.21,302.26a63.67,63.67,0,0,1-16.44-2.09,44.69,44.69,0,0,1-11.44-4.63L191,283a45.71,45.71,0,0,0,10.57,4.6,45.08,45.08,0,0,0,12.62,1.84c4.14,0,7.3-.61,9.67-1.84,3.28-1.72,4-4.16,4-5.89,0-1.57-.64-3.75-3.7-5.25a53.68,53.68,0,0,0-9.27-3.15,95.5,95.5,0,0,1-11.34-3.66,19.2,19.2,0,0,1-7.35-5.37c-2-2.3-3-5.42-3-9.26a20.92,20.92,0,0,1,3.9-12.56A25.5,25.5,0,0,1,208.37,234,46.52,46.52,0,0,1,226,231a59.82,59.82,0,0,1,13.93,1.54,39,39,0,0,1,9.89,3.71l-6.08,12.4a35.75,35.75,0,0,0-8.25-3.38,41,41,0,0,0-10.71-1.42c-4.23,0-7.64.71-10.12,2.11-2.74,1.56-4.13,3.65-4.13,6.23,0,1.61.65,3.85,3.75,5.35a55.16,55.16,0,0,0,9.43,3.15A87.2,87.2,0,0,1,235,264.15a18.78,18.78,0,0,1,7.25,5.21,13.24,13.24,0,0,1,2.92,8.95,20.59,20.59,0,0,1-4,12.46,25.82,25.82,0,0,1-11.41,8.43A46.7,46.7,0,0,1,212.21,302.26Z"/><path class="cls-3" d="M226,232.36a59.15,59.15,0,0,1,13.6,1.5,38.66,38.66,0,0,1,8.34,2.95l-4.82,9.84a37.92,37.92,0,0,0-7.26-2.8,42.09,42.09,0,0,0-11.08-1.47c-4.55,0-8.09.75-10.82,2.3-4,2.27-4.85,5.31-4.85,7.46,0,1.65.59,4.71,4.56,6.62a55.29,55.29,0,0,0,9.71,3.26,87.3,87.3,0,0,1,11.08,3.44,17.49,17.49,0,0,1,6.71,4.83c1.73,2,2.57,4.62,2.57,8A18.91,18.91,0,0,1,240,289.93a24.37,24.37,0,0,1-10.79,8,45.33,45.33,0,0,1-17,2.95,62.12,62.12,0,0,1-16.07-2,45.91,45.91,0,0,1-9.92-3.8l5.31-10.07a47.12,47.12,0,0,0,22.62,5.89c4.37,0,7.75-.65,10.33-2,3.9-2.05,4.72-5,4.72-7.14,0-1.61-.58-4.6-4.48-6.52a54.72,54.72,0,0,0-9.54-3.25,93.09,93.09,0,0,1-11.16-3.6,17.82,17.82,0,0,1-6.82-5c-1.77-2.07-2.63-4.79-2.63-8.34a19.25,19.25,0,0,1,3.64-11.73,24.11,24.11,0,0,1,10.69-7.95A45.18,45.18,0,0,1,226,232.36m0-2.83a47.72,47.72,0,0,0-18.13,3.16,26.64,26.64,0,0,0-11.91,8.91A22.15,22.15,0,0,0,191.74,255q0,6.31,3.31,10.19a20.64,20.64,0,0,0,7.89,5.75,95.25,95.25,0,0,0,11.51,3.72,52.43,52.43,0,0,1,9,3.05q2.9,1.43,2.9,4c0,2-1.07,3.51-3.21,4.63s-5.14,1.68-9,1.68a43.45,43.45,0,0,1-12.23-1.78,44,44,0,0,1-11.5-5.25L182.47,296a43.48,43.48,0,0,0,12.94,5.5,64.55,64.55,0,0,0,16.8,2.13,48,48,0,0,0,18.08-3.15,27.19,27.19,0,0,0,12-8.91,21.86,21.86,0,0,0,4.22-13.3,14.6,14.6,0,0,0-3.25-9.88,20.38,20.38,0,0,0-7.8-5.6A88.25,88.25,0,0,0,224,259.27a54.51,54.51,0,0,1-9.17-3.06q-3-1.42-3-4.07c0-2,1.13-3.7,3.41-5s5.41-1.94,9.42-1.94a39,39,0,0,1,10.34,1.38,33.48,33.48,0,0,1,9.21,4l7.34-15a38.64,38.64,0,0,0-11.41-4.53A61,61,0,0,0,226,229.53Z"/><polygon class="cls-2" points="240.87 311.02 291.58 217.91 306.18 217.91 255.47 311.02 240.87 311.02"/><path class="cls-3" d="M303.79,219.33,254.63,309.6H243.26l49.16-90.27h11.37m4.77-2.84H290.74l-52.25,95.94h17.82l52.25-95.94Z"/><path class="cls-2" d="M348.19,419.66A17.53,17.53,0,0,1,330.68,403l-7-136a17.53,17.53,0,0,1,27-15.63l111.57,72.05a17.54,17.54,0,0,1-6.2,31.95l-25.38,4.88,11,19a17.45,17.45,0,0,1-6,23.68l-21.13,13A17.53,17.53,0,0,1,390,409.7l-10.3-18.25-18,21.83A17.49,17.49,0,0,1,348.19,419.66ZM347,405.85l35.22-42.77,22.57,40,23.56-14.5L405.4,348.77l51.05-9.83L339.59,263.47Z"/><path class="cls-3" d="M341.15,250.05a16.06,16.06,0,0,1,8.74,2.58l111.57,72.05a16.11,16.11,0,0,1-5.7,29.36l-23.42,4.51-3.91.75,2,3.45L440.37,380a16,16,0,0,1-5.52,21.77l-21.13,13A16.13,16.13,0,0,1,391.24,409L382,392.55l-2-3.59-2.63,3.19-16.66,20.22a16,16,0,0,1-12.44,5.88,16.31,16.31,0,0,1-5-.81,16,16,0,0,1-11-14.48l-7.05-136a16.1,16.1,0,0,1,16.1-16.95m4.59,159.52,4.64-5.64L382,365.57l20.83,36.9,1.45,2.57,2.51-1.55,21.13-13,2.34-1.44-1.37-2.39-21.24-36.88L453.25,341l6.93-1.33-5.93-3.83L342.68,263.78l-4.65-3,.29,5.53,7,136,.38,7.29m-4.59-162.36a19,19,0,0,0-18.93,19.94l7,136a19,19,0,0,0,33.55,11.07L379.48,394l9.29,16.45a19,19,0,0,0,26.43,6.82l21.13-13a19,19,0,0,0,6.49-25.6l-9.95-17.28,23.43-4.51A19,19,0,0,0,463,322.3L351.43,250.24a19,19,0,0,0-10.28-3Zm7,154.92-7-136,111.56,72.06-49.53,9.53,23.22,40.33-21.13,13-22.86-40.5-34.22,41.55Z"/></svg>