<svg id="Capa_1" data-name="Capa 1" xmlns="http://www.w3.org/2000/svg" viewBox="0 0 600 600"><defs><style>.cls-1{fill:red;}.cls-2{fill:#fff;}.cls-3{fill:#e30413;}</style></defs><circle class="cls-1" cx="300" cy="300" r="300"/><path class="cls-2" d="M172.42,425.1a7.48,7.48,0,0,1-7.48-7.48V249.09h-2.55a7.76,7.76,0,0,1-7.75-7.75V182.65a7.76,7.76,0,0,1,7.75-7.75H437.61a7.76,7.76,0,0,1,7.75,7.75v58.69a7.76,7.76,0,0,1-7.75,7.75h-2.55V417.62a7.48,7.48,0,0,1-7.48,7.48Zm7.48-15H420.1V249.09H335.61V284a7.76,7.76,0,0,1-7.75,7.75H276.29a7.76,7.76,0,0,1-7.75-7.75v-34.9H179.9ZM284,276.24h36.07V190.4H284Zm51.57-42.65h94.25V190.4H335.61Zm-165.47,0h98.4V190.4h-98.4Z"/><path class="cls-3" d="M437.61,176.31a6.35,6.35,0,0,1,6.33,6.34v58.69a6.34,6.34,0,0,1-6.33,6.33h-4v170a6.06,6.06,0,0,1-6.06,6.07H172.42a6.06,6.06,0,0,1-6.06-6.07v-170h-4a6.34,6.34,0,0,1-6.33-6.33V182.65a6.35,6.35,0,0,1,6.33-6.34H437.61M334.19,235h97.09V189H334.19v46m-51.57,42.65h38.91V189H282.62v88.68M168.72,235H270V189H168.72v46m107.57,55.31A6.34,6.34,0,0,1,270,284V247.67H178.48V411.56h243V247.67H334.19V284a6.34,6.34,0,0,1-6.33,6.33H276.29M437.61,173.48H162.39a9.17,9.17,0,0,0-9.17,9.17v58.69a9.18,9.18,0,0,0,9.17,9.17h1.13V417.62a8.89,8.89,0,0,0,8.9,8.9H427.58a8.89,8.89,0,0,0,8.9-8.9V250.51h1.13a9.18,9.18,0,0,0,9.17-9.17V182.65a9.17,9.17,0,0,0-9.17-9.17ZM337,232.17V191.82h91.41v40.35Zm-51.57,42.65v-83h33.23v83Zm-113.9-42.65V191.82h95.56v40.35Zm104.73,61h51.57A9.17,9.17,0,0,0,337,284V250.51h81.66V408.73H181.31V250.51h85.81V284a9.17,9.17,0,0,0,9.17,9.17Z"/></svg>