<svg id="Capa_1" data-name="Capa 1" xmlns="http://www.w3.org/2000/svg" viewBox="0 0 600 600"><defs><style>.cls-1{fill:red;}.cls-2{fill:#fff;}.cls-3{fill:#e30413;}</style></defs><circle class="cls-1" cx="300" cy="300" r="300"/><path class="cls-2" d="M314.94,432.64a28.16,28.16,0,0,1-12.61-3l-60.67-30.05c-2-.88-12-5.4-22.65-11.46-17.74-10.12-26.46-18.3-28.29-26.5-2.06-9.29-2.66-10.28-5.16-13.44l-1.12-1.43-.09-.12-.12-.1c-1.78-1.49-6.58-4.41-14.27-8.69a8.83,8.83,0,0,1-.83-.46c-10.28-5.69-24.23-13-37.37-19.55a8.5,8.5,0,0,1,3.81-16.11,8.36,8.36,0,0,1,3.79.9c11.18,5.58,20.93,10.6,29,14.91l1.33.72,42.89-95.34L131.83,183.5a8.5,8.5,0,0,1,3.74-16.14,8.42,8.42,0,0,1,3.72.86L270.88,232.5a30.6,30.6,0,0,1,6.63,4.32l.63.55,183.3-69.07a8.38,8.38,0,0,1,3-.55,8.5,8.5,0,0,1,3,16.46L287.15,252.15l.27,1.21a30.33,30.33,0,0,1-2.25,20l-16.63,34.53a10.67,10.67,0,0,0,.85,10.62l.19.27A10.55,10.55,0,0,0,273.4,322a9.87,9.87,0,0,0,4.42,1.05,9.73,9.73,0,0,0,9-6l13.51-30.81a43.16,43.16,0,0,1,57.54-22.13l78.65,35.56a28.8,28.8,0,0,1,13.64,12.89l.6,1.14,10.46-4.31a8.51,8.51,0,0,1,6.48,15.73l-14.42,5.94-.14.75a29,29,0,0,1-1.69,5.67,28.22,28.22,0,0,1-38.14,14.89l-4.53-2.11-.27,1.89a24.18,24.18,0,0,1-2,6.74l-1.25,2.66a26.3,26.3,0,0,1-23.95,15.37,27.24,27.24,0,0,1-3-.17l-1.56-.18,0,1.57a26.82,26.82,0,0,1-3,12.13,26.3,26.3,0,0,1-28.93,14l-1.63-.34-.08,1.65a28.37,28.37,0,0,1-3.31,12,28,28,0,0,1-24.81,15Zm-70.81-50.59,1.31.6c1.07.49,2.14,1,3.22,1.45l.36.17,60.86,30.15a11.13,11.13,0,0,0,14.84-4.77,12.06,12.06,0,0,0-4.93-16.2l-13-7a8.51,8.51,0,0,1,4-16,8.36,8.36,0,0,1,3.77.89l31.15,15.43a9.53,9.53,0,0,0,12.8-4.22,10.44,10.44,0,0,0-4.64-14l-29.46-14.6a8.51,8.51,0,0,1,3.78-16.13,8.39,8.39,0,0,1,3.48.76L377.17,359a9.54,9.54,0,0,0,12.65-4.68l1.24-2.66a7.52,7.52,0,0,0-3.41-9.77L341,318.78a8.51,8.51,0,0,1,3.78-16.13,8.39,8.39,0,0,1,3.58.8L420.45,337a11.43,11.43,0,0,0,4.84,1.09,11.09,11.09,0,0,0,4.06-.77,11.29,11.29,0,0,0,6.37-6.29,12.3,12.3,0,0,0-6.22-15.8l-78.65-35.56a26.44,26.44,0,0,0-10.94-2.39,26.21,26.21,0,0,0-24,15.84L302.4,323.86A26.53,26.53,0,0,1,287,338.42c-.64.24-1.34.46-2.13.68l-2.65.73,2.13,1.74a9.64,9.64,0,1,1-12.34.17l2.09-1.79-2.67-.66a27.34,27.34,0,0,1-4.59-1.58l-1.26-.57Zm-59.56-55.41,1.08.65c9.82,5.91,11.33,7.89,12,8.73.47.62.9,1.16,1.29,1.66,4,5.08,5.66,7.94,8.37,20.08l0,.15.06.13c2.13,4.67,14.91,12.37,20.31,15.47l1.32.76L253,324l-.26-.59a27.69,27.69,0,0,1,.43-22.87L269.84,266a13.8,13.8,0,0,0-6.38-18.18l-35.6-17.39Z"/><path class="cls-3" d="M135.57,168.77h0a7.12,7.12,0,0,1,3.1.72l131.61,64.29a28.86,28.86,0,0,1,6.3,4.12l1.28,1.09,1.57-.59,182.51-68.78a7.09,7.09,0,0,1,5,13.27l-179.13,67.5-2.31.87.54,2.41a28.85,28.85,0,0,1-2.15,19.07l-16.63,34.54a12.1,12.1,0,0,0,1,12l0,.05,0,0,.14.19,0,0,0,0a12.05,12.05,0,0,0,4.31,3.62,11.26,11.26,0,0,0,5.05,1.2,11.17,11.17,0,0,0,10.28-6.82l13.51-30.82a41.72,41.72,0,0,1,55.66-21.41L435.92,301a27.36,27.36,0,0,1,13,12.27l1.2,2.27,2.38-1,9.27-3.82a7.19,7.19,0,0,1,2.7-.54,7.09,7.09,0,0,1,2.7,13.65l-13.71,5.64-1.42.59-.28,1.51a26.86,26.86,0,0,1-37.85,19.53l-2.8-1.3-3.45-1.6-.54,3.76a23.16,23.16,0,0,1-1.91,6.35L403.93,361a24.9,24.9,0,0,1-22.67,14.56,26.84,26.84,0,0,1-2.83-.16L375.3,375l0,3.15a25.55,25.55,0,0,1-2.84,11.49,25,25,0,0,1-22.27,13.78,25.28,25.28,0,0,1-5.12-.53l-3.24-.68-.17,3.31a27.17,27.17,0,0,1-3.14,11.42A26.61,26.61,0,0,1,303,428.39l-60.66-30.06,0,0-.06,0c-1.89-.84-11.89-5.33-22.47-11.37-17.13-9.77-25.9-17.89-27.61-25.57-2.12-9.56-2.82-10.7-5.43-14l-1.11-1.42-.19-.24-.23-.2c-1.85-1.54-6.72-4.52-14.49-8.84l-.06,0-.07,0a6.44,6.44,0,0,1-.63-.36l-.07,0-.06,0c-10.24-5.67-24.21-13-37.36-19.54a7.09,7.09,0,0,1,3.17-13.43,7,7,0,0,1,3.16.75c11.14,5.56,20.88,10.57,29,14.89l2.67,1.44,1.25-2.77,41.7-92.7,1.13-2.51-2.47-1.2-79.51-38.84a7.09,7.09,0,0,1,3.12-13.46m94.05,207.49,1.32-2.76L254,325.17l.55-1.16-.5-1.18a26.18,26.18,0,0,1,.4-21.69l16.63-34.54a15.25,15.25,0,0,0-7-20.07L229.8,229.78l-2.63-1.28-1.2,2.67L183.8,324.91l-1,2.29,2.15,1.3c9.59,5.77,11,7.67,11.58,8.38s.9,1.17,1.3,1.67c3.94,5,5.44,7.61,8.1,19.52l.06.29.12.27c2.22,4.86,14,12.18,20.89,16.11l2.65,1.52m48.68-19A8.22,8.22,0,0,1,273,342.81l4.17-3.58-5.33-1.32a24.85,24.85,0,0,1-4.35-1.5l-2.53-1.13-1.19,2.5-20.25,42.36-1.24,2.6,2.62,1.2c1.08.5,2.16,1,3.24,1.46l.3.14,60.86,30.15A12.54,12.54,0,0,0,326,410.31a13.48,13.48,0,0,0-5.51-18.1l-13-7a7.08,7.08,0,0,1,3.37-13.32,7,7,0,0,1,3.14.74L345.13,388a11.08,11.08,0,0,0,4.94,1.17,10.94,10.94,0,0,0,9.75-6,11.87,11.87,0,0,0-5.27-15.92l-29.46-14.6a7.09,7.09,0,0,1,3.15-13.44,7,7,0,0,1,2.9.63l45.45,20.46a11.13,11.13,0,0,0,4.56,1,10.92,10.92,0,0,0,10-6.36l1.25-2.66a9,9,0,0,0-4.07-11.64L341.6,317.51a7.09,7.09,0,0,1,3.15-13.44,7,7,0,0,1,3,.66l72.12,33.52a13,13,0,0,0,5.44,1.21A12.67,12.67,0,0,0,437,331.53a13.72,13.72,0,0,0-6.95-17.63l-78.65-35.56a27.71,27.71,0,0,0-11.52-2.51,27.3,27.3,0,0,0-9.85,1.83,27.62,27.62,0,0,0-15.47,14.86l-13.5,30.78a25.12,25.12,0,0,1-14.56,13.79c-.6.22-1.26.43-2,.64l-5.3,1.47,4.27,3.47a8.22,8.22,0,0,1-5.18,14.61M135.57,165.94a9.92,9.92,0,0,0-4.36,18.84l79.51,38.84L169,316.31c-7.53-4-17-8.95-29-14.93a9.92,9.92,0,1,0-8.86,17.75c12.74,6.36,26.82,13.71,37.25,19.49.29.18.59.34.89.49,7,3.9,12.25,7,14,8.54.4.52.78,1,1.13,1.44,2.28,2.89,2.82,3.57,4.89,12.86,1.92,8.64,10.85,17.09,29,27.43,10.75,6.13,21,10.75,22.72,11.49l60.67,30.06a29.77,29.77,0,0,0,13.24,3.13A29.43,29.43,0,0,0,341,418.26a30.26,30.26,0,0,0,3.47-12.6,27.49,27.49,0,0,0,5.69.59A27.78,27.78,0,0,0,375,390.94a28.61,28.61,0,0,0,3.15-12.77,27.75,27.75,0,0,0,28.38-16l1.25-2.66a25.17,25.17,0,0,0,2.15-7.14l2.8,1.3a29.8,29.8,0,0,0,41.82-21.58l13.71-5.64a9.92,9.92,0,1,0-7.56-18.35l-9.27,3.82a30.32,30.32,0,0,0-14.3-13.52l-78.65-35.56A44.6,44.6,0,0,0,299,285.69L285.5,316.51a8.34,8.34,0,0,1-7.68,5.12,8.51,8.51,0,0,1-3.79-.9,9.17,9.17,0,0,1-3.29-2.77l-.19-.26a9.22,9.22,0,0,1-.73-9.19L286.45,274A32,32,0,0,0,288.81,253l179.13-67.5a9.92,9.92,0,1,0-7-18.57L278.43,235.75a31.62,31.62,0,0,0-6.93-4.53L139.92,167a9.85,9.85,0,0,0-4.35-1Zm92.81,206.34c-10.38-6-18.31-11.75-19.72-14.82-2.77-12.44-4.49-15.41-8.64-20.66-.38-.5-.81-1-1.27-1.64-.74-1-2.32-3-12.37-9.09l42.18-93.74,34.29,16.75a12.37,12.37,0,0,1,5.71,16.29l-16.62,34.54a29,29,0,0,0-.46,24l-23.1,48.34Zm49.92-12.16a11.07,11.07,0,0,0,7-19.66c.75-.2,1.5-.44,2.24-.71a28,28,0,0,0,16.19-15.32l13.48-30.78a24.82,24.82,0,0,1,22.73-15,25.12,25.12,0,0,1,10.35,2.26l78.65,35.56a10.87,10.87,0,0,1,5.5,14,9.92,9.92,0,0,1-5.57,5.51,9.72,9.72,0,0,1-3.55.67,10.07,10.07,0,0,1-4.24-.95l-72.12-33.52a9.92,9.92,0,0,0-8.59,17.89L387,343.18a6.08,6.08,0,0,1,2.76,7.9l-1.25,2.65a8.12,8.12,0,0,1-7.38,4.74,8.23,8.23,0,0,1-3.39-.74l-45.45-20.46a9.92,9.92,0,0,0-8.48,17.94l29.46,14.6a9,9,0,0,1,4,12.09,8.12,8.12,0,0,1-7.23,4.46,8.28,8.28,0,0,1-3.68-.87l-31.15-15.43a9.92,9.92,0,0,0-9.12,17.61l13,7A10.64,10.64,0,0,1,323.47,409a9.7,9.7,0,0,1-8.59,5.21,9.81,9.81,0,0,1-4.37-1L249.64,383l-.41-.2c-1.07-.47-2.14-.95-3.2-1.44L266.28,339a27.58,27.58,0,0,0,4.83,1.66,11.06,11.06,0,0,0,7.19,19.46Z"/><path class="cls-2" d="M267.24,384.92a9.65,9.65,0,1,1,9.64-9.64A9.66,9.66,0,0,1,267.24,384.92Z"/><path class="cls-3" d="M267.24,367.05a8.23,8.23,0,1,1-8.23,8.23,8.24,8.24,0,0,1,8.23-8.23m0-2.84a11.07,11.07,0,1,0,11.06,11.07,11.07,11.07,0,0,0-11.06-11.07Z"/></svg>