<?xml version="1.0" encoding="utf-8"?>
<!-- Generator: Adobe Illustrator 26.1.0, SVG Export Plug-In . SVG Version: 6.00 Build 0)  -->
<svg version="1.1" id="Capa_1" xmlns="http://www.w3.org/2000/svg" xmlns:xlink="http://www.w3.org/1999/xlink" x="0px" y="0px"
	 viewBox="0 0 576.2 174.9" style="enable-background:new 0 0 576.2 174.9;" xml:space="preserve">
<style type="text/css">
	.st0{fill:#DFDFDF;}
	.st1{fill:#E10303;}
</style>
<g>
	<path class="st0" d="M364.9,174.1c-12.7,0-25.1,0-37.9,0c4.1-22.7,8.3-45.2,12.4-67.7c-0.3-0.1-0.6-0.3-1-0.4c-1,1.4-2,2.8-2.9,4.3
		c-13.4,20.2-27,40.3-40.3,60.6c-1.9,2.9-3.8,4-7.2,3.9c-8.7-0.2-17.3-0.2-26,0c-3.2,0.1-4.6-0.9-5.5-4.1
		c-5.7-19.6-11.7-39.1-17.6-58.7c-0.6-1.8-1.5-3.5-2.6-6.2c-3.5,23.1-6.9,45-10.4,67.7c-12.6,0-25.2,0-37.8,0
		c9-57.1,18.1-114.5,27.2-172.1c12.2,0,24.1,0,36.3,0c9.8,42.6,19.5,85.2,29.6,128.9c1.3-2.2,2.1-3.4,2.9-4.8
		c23.2-40.1,46.5-80.2,69.6-120.3c1.7-2.9,3.4-4.2,6.9-4.1c10.3,0.3,20.6,0.1,31.4,0.1C383,58.9,374,116.3,364.9,174.1z"/>
	<path class="st0" d="M155.6,82.7c27.8,19.1,27.1,58.8,9.8,78.7c-7.3,8.4-16.4,13.2-27.4,13.2c-42.3,0.2-84.6,0.2-126.9,0.2
		c-0.9,0-1.9-0.3-3.2-0.4c0.2-1.5,0.3-2.8,0.7-4c10.1-31.6,20.4-63.2,30.4-94.8c1.3-4,3.1-4.9,7.1-4.9c22.5,0.2,45,0.1,67.5,0.1
		c9.6,0,15.7-6.4,15.9-16.5c0.2-10.2-6.1-17.1-15.8-17.2c-35.7,0-71.3,0-107,0.1c-1.8,0-3.5,0-6.4,0c4.2-8.2,8.6-15.1,11.3-22.6
		C15.5,2.9,22.6-0.5,35.1,0.1c29.1,1.2,58.3,0.4,87.4,0.5c31.1,0,50.4,22.6,46,53.8C167.1,65,163.3,74.6,155.6,82.7z M58.9,137
		c22.6,0,45.1,0.3,67.5-0.2c7.3-0.1,12.9-9,12.5-17.4c-0.5-9.2-6.3-15.9-14.4-16c-5.8-0.1-11.6,0.3-17.4,0.3
		c-12.6,0.1-25.2,0-37.7,0C65.5,115.8,62.1,126.7,58.9,137z"/>
	<path class="st1" d="M413.6,173.6c4.3-12.7,8.3-24.8,12.7-36.8c0.5-1.3,3.4-2.3,5.2-2.3c28.8-0.1,57.7-0.1,86.5-0.1
		c10,0,16.4-5.7,17-15.1c0.6-9.7-5.8-16.7-15.5-16.7c-19.7-0.1-39.3,0-59,0c-1.8,0-3.6,0-6.4,0C456.7,95,459,88,461.4,81
		c3.6-10.8,3.6-10.8,15.2-10.8c28.5,0,57,0,85.5,0c1.8,0,3.6,0,6.5,1.1c-3.9,5.1-7.9,10.3-12,15.7c1.4,1.2,3.4,2.7,5.1,4.4
		c23.5,22.3,17.7,65.3-10.9,78.7c-4.6,2.1-9.9,3.7-14.9,3.7c-39.8,0.3-79.7,0.1-119.5,0.1C415.7,174,415.1,173.8,413.6,173.6z"/>
	<path class="st1" d="M572.3,38.5c-56.2,0-111.5,0-167.7,0c1.2-2.5,2.2-4.3,3.1-6.2c4.7-9.2,9.5-18.3,14.1-27.5
		c1.2-2.5,2.6-3.7,5.7-3.7c34,0.1,67.9-0.1,101.9,0.1c20.8,0.1,36,12.1,41.8,32.1C571.7,34.9,571.9,36.5,572.3,38.5z"/>
</g>
</svg>
